<svg width="32" height="32" viewBox="0 0 32 32" fill="none" xmlns="http://www.w3.org/2000/svg">
<g clip-path="url(#clip0_3821_13692)">
<path d="M28.547 15.4403L16.547 3.44033C16.067 2.96033 15.4003 2.66699 14.667 2.66699H5.33366C3.86699 2.66699 2.66699 3.86699 2.66699 5.33366V14.667C2.66699 15.4003 2.96033 16.067 3.45366 16.5603L15.4537 28.5603C15.9337 29.0403 16.6003 29.3337 17.3337 29.3337C18.067 29.3337 18.7337 29.0403 19.2137 28.547L28.547 19.2137C29.0403 18.7337 29.3337 18.067 29.3337 17.3337C29.3337 16.6003 29.027 15.9203 28.547 15.4403ZM7.33366 9.33366C6.22699 9.33366 5.33366 8.44033 5.33366 7.33366C5.33366 6.22699 6.22699 5.33366 7.33366 5.33366C8.44033 5.33366 9.33366 6.22699 9.33366 7.33366C9.33366 8.44033 8.44033 9.33366 7.33366 9.33366Z" fill="url(#paint0_linear_3821_13692)"/>
</g>
<defs>
<linearGradient id="paint0_linear_3821_13692" x1="29.3337" y1="16.0003" x2="2.66699" y2="16.0003" gradientUnits="userSpaceOnUse">
<stop stop-color="#800080"/>
<stop offset="1" stop-color="#FF864C"/>
</linearGradient>
<clipPath id="clip0_3821_13692">
<rect width="32" height="32" fill="white"/>
</clipPath>
</defs>
</svg>
